
<svg xmlns="http://www.w3.org/2000/svg" version="1.1" xmlns:xlink="http://www.w3.org/1999/xlink" preserveAspectRatio="none" x="0px" y="0px" width="500px" height="500px" viewBox="0 0 500 500">
<defs>
<g id="background_0_Layer0_0_FILL">
<path fill="#B3D6E4" stroke="none" d="
M 173.2 -173.25
Q 101.5 -245 0 -245 -101.5 -245 -173.25 -173.25 -245 -101.5 -245 0 -245 101.5 -173.25 173.2 -101.5 245 0 245 101.5 245 173.2 173.2 245 101.5 245 0 245 -101.5 173.2 -173.25 Z"/>
</g>

<g id="lijf_0_Layer1_0_FILL">
<path fill="#378696" stroke="none" d="
M 36.15 -34.2
Q 21.257421875 -74.6875 0.95 -77.05 -19.31328125 -79.4224609375 -34.1 -40.9 -48.8384765625 -2.367578125 -52.3 29.65 -55.70390625 61.7060546875 -55.7 61.75 -55.7 67.25 -39.45 71.15 -23.1 75.05 0 75.05 23.1 75.05 39.4 71.15 55.7 67.25 55.7 61.75 55.7013671875 61.70234375 53.4 34 51.0953125 6.292578125 36.15 -34.2 Z"/>
</g>

<g id="hoofd_45_Layer10_0_FILL">
<path fill="#FCFFFE" stroke="none" d="
M 44.5 -28.8
Q 66.75 -56.5 66.75 -95.65 66.75 -134.8 44.5 -162.5 22.3 -190.2 -9.05 -190.2 -40.4 -190.2 -62.65 -162.5 -84.85 -134.8 -84.85 -95.65 -84.85 -56.5 -62.65 -28.8 -40.4 -1.1 -9.05 -1.1 22.3 -1.1 44.5 -28.8 Z"/>
</g>

<g id="bril1_0_Layer1_0_FILL">
<path fill="#6DC2E4" fill-opacity="0.4980392156862745" stroke="none" d="
M 18.55 -0.5
Q 18.5 -6.65 17.35 -12.7 16.85 -15.6 15.6 -16.55 14.8 -17.4 12.75 -17.7 -0.7 -20.1 -14.6 -17.8 -17.25 -17.15 -18.35 -16.3 -18.45 -12.45 -18.5 -7.1 -18.55 -0.8 -18.6 7.55 -18.6 10.25 -18.4 11.5 -18.1 13.65 -17.1 15.05 -15.95 17 -13.25 18.05 -10 19.35 -4.25 18.8 2.8 18.2 5 18.45 5.15 18.45 7.9 18.8 9.65 19.05 10.75 18.8 14.35 18.05 16.25 14.3 17.6 11.85 18.1 7.05 18.55 3.25 18.55 -0.5 Z"/>
</g>

<g id="bril2_0_Layer1_0_FILL">
<path fill="#6DC2E4" fill-opacity="0.4980392156862745" stroke="none" d="
M 11.7 -0.4
Q 11.55 -6.7 10.95 -12.6 10.6 -15.5 9.85 -16.55 9.3 -17.25 8.15 -17.7 1.25 -20.05 -14.5 -17.75 -17.05 -17.2 -18.15 -16.25 -18.05 -12.25 -17.95 -7.05 -17.75 -0.6 -18.15 7.5 -18.15 10.1 -18.1 11.45 -17.85 13.7 -17 14.95 -16 16.9 -13.6 18.05 -10.8 19.25 -5.75 18.8 1.15 18.15 3 18.45 3.1 18.4 5.6 18.75 7.2 18.9 8.2 18.8 11.35 18.05 12.45 14.3 12.9 11.7 12.3 7.05 11.5 3.15 11.7 -0.4 Z"/>
</g>

<g id="haar_0_Layer3_0_FILL">
<path fill="#8F021F" stroke="none" d="
M 37.5 -22.7
Q 30.35 -31.85 24.1 -40.75 13.15 -57.6 -5.1 -68.6
L -2.5 -60.65 -9.85 -67.95 -9.9 -64.45 -18.4 -68.55
Q -18.95 -61.8 -27.6 -65.3 -25.15 -56.65 -32.95 -62.45 -32.2 -58.2 -34.55 -55.65 -39.4 -59.2 -42.6 -59.1 -38.45 -47 -48.8 -53.35 -49.8 -50 -53.5 -52.2
L -54.9 -47.4 -60.75 -50.5 -63.9 -44.45
Q -66.8 -48.55 -71 -49.65 -62.7 23.4 -88.7 67.6 -70.05 54.45 -40.25 23.45
L -38.9 23.15 -37.2 30.1 -28.1 22.6
Q -23 31.75 -20.65 21.4 -18.6 25.55 -13.55 21.5 -12.3 24.45 -9.95 21.45 -6.4 24.85 -3.95 18.1 -0.85 24.65 3.9 18.05 8.6 21.7 7.75 29.45 19.25 13.25 21.7 19.85 22.7 26.6 28.15 19.85 28.85 24.85 32.65 19.85
L 33.4 19.3
Q 33.5 19.5 33.65 19.7
L 38.25 19.05
Q 38.65 18.65 39.15 18.2
L 39.8 18.8
Q 40.2 20.8 40.45 22.8 42.2 36.55 35.95 48.9 49.1 33.55 49.65 21.85 73.15 34.15 77.3 68.55 81.05 64.7 81.5 58.55 84.2 64.3 88.7 66.65 87.95 53 84.3 38.8 80.65 24.55 62.65 5.5 44.65 -13.55 37.5 -22.7 Z"/>
</g>

<g id="potlood_0_Layer0_0_FILL">
<path fill="#FAF109" stroke="none" d="
M 59.85 -98.05
Q 47.05 -89.9 31.35 -95.1 14.35 -98.95 8.55 -109.45
L -59.8 146.95
Q -46.05 165.6 -12.15 166.65
L 59.85 -98.05
M 45.7 -80.4
Q 43.75 -70 41.1 -59.6 38.45 -49.25 35.05 -38.85 38.45 -49.25 41.1 -59.6 43.75 -70 45.7 -80.4
M 32.55 -29.1
Q 28.55 -18.85 26.9 -7.05 28.55 -18.85 32.55 -29.1
M 53.5 -161.5
Q 52.15 -170.45 45.6 -163.75
L 32.3 -144.25
Q 44.35 -135.7 55.75 -139.05
L 53.5 -161.5 Z"/>

<path fill="#FCFFFE" stroke="none" d="
M 32.3 -144.25
L 8.55 -109.45
Q 14.35 -98.95 31.35 -95.1 47.05 -89.9 59.85 -98.05
L 55.75 -139.05
Q 44.35 -135.7 32.3 -144.25 Z"/>
</g>

<g id="handje_0_Layer0_0_FILL">
<path fill="#000000" stroke="none" d="
M -41.05 -14
Q -45.45 -9.6 -45.45 -3.4 -45.45 2.8 -41.05 7.2 -36.65 11.6 -29.4 13.05 -22.2 14.5 -9.95 10.15 2.3 5.75 0.5 -2.6 -1.35 -10.9 -12.8 -14.65 -24.25 -18.4 -30.45 -18.4 -36.65 -18.4 -41.05 -14 Z"/>
</g>

<g id="afdek_0_Layer0_0_FILL">
<path fill="#FFFFFF" stroke="none" d="
M 250 -250
L -250 -250 -250 250 250 250 250 -250
M -169.8 -169.7
Q -99.55 -240 -0.1 -240 99.3 -240 169.55 -169.7 239.9 -99.45 239.9 0 239.9 99.45 169.55 169.65 99.3 240 -0.1 240 -99.55 240 -169.8 169.65 -240.1 99.45 -240.1 0 -240.1 -99.45 -169.8 -169.7 Z"/>
</g>

<path id="Symbool_15_0_Layer0_0_1_STROKES" stroke="#000000" stroke-width="3" stroke-linejoin="round" stroke-linecap="round" fill="none" d="
M -50.55 -16.35
Q -12.75 15.05 12.05 16.3 36.7 17.45 50.6 -2.65"/>

<path id="lijf_0_Layer1_0_1_STROKES" stroke="#000000" stroke-width="3" stroke-linejoin="round" stroke-linecap="round" fill="none" d="
M 55.7 61.75
Q 55.7 67.25 39.4 71.15 23.1 75.05 0 75.05 -23.1 75.05 -39.45 71.15 -55.7 67.25 -55.7 61.75 -55.70390625 61.7060546875 -52.275 29.675 -48.8384765625 -2.367578125 -34.075 -40.9 -19.31328125 -79.4224609375 0.975 -77.05 21.257421875 -74.6875 36.175 -34.2 51.0953125 6.292578125 53.4 34 55.7013671875 61.70234375 55.7 61.75 Z"/>

<path id="lijf_0_Layer0_0_1_STROKES" stroke="#FCFFFE" stroke-width="5" stroke-linejoin="round" stroke-linecap="round" fill="none" d="
M 29 -10.5
L 29 -12.05
M 16.4 -49.3
Q 19.8998046875 -43.646875 21.125 -38.65 22.3505859375 -33.659375 24.475 -29.7 26.59921875 -25.7375 26.8 -22.95"/>

<path id="hoofd_45_Layer10_0_1_STROKES" stroke="#000000" stroke-width="3" stroke-linejoin="round" stroke-linecap="round" fill="none" d="
M 66.75 -95.65
Q 66.75 -56.5 44.5 -28.8 22.3 -1.1 -9.05 -1.1 -40.4 -1.1 -62.65 -28.8 -84.85 -56.5 -84.85 -95.65 -84.85 -134.8 -62.65 -162.5 -40.4 -190.2 -9.05 -190.2 22.3 -190.2 44.5 -162.5 66.75 -134.8 66.75 -95.65 Z"/>

<path id="hoofd_45_Layer9_0_1_STROKES" stroke="#CCCCCC" stroke-opacity="0.4980392156862745" stroke-width="20" stroke-linejoin="round" stroke-linecap="round" fill="none" d="
M -1.45 -11.85
Q 75.95 -41.15 46.45 -139.75"/>

<path id="ogen_45_Layer0_0_1_STROKES" stroke="#000000" stroke-width="3" stroke-linejoin="round" stroke-linecap="round" fill="none" d="
M -1.9 -1.25
Q -2 -0.1 -1.9 0.6 -1.7 4.8 -0.95 9.2"/>

<path id="bril1_0_Layer1_0_1_STROKES" stroke="#E52613" stroke-width="5" stroke-linejoin="round" stroke-linecap="round" fill="none" d="
M -18.35 -16.3
Q -17.25 -17.15 -14.6 -17.8 -0.7 -20.1 12.75 -17.7 14.8 -17.4 15.6 -16.55 16.85 -15.6 17.35 -12.7 18.5 -6.65 18.55 -0.5 18.55 3.25 18.1 7.05 17.6 11.85 16.25 14.3 14.35 18.05 10.75 18.8 9.65 19.05 7.9 18.8 5.15 18.45 5 18.45 2.8 18.2 -4.25 18.8 -10 19.35 -13.25 18.05 -15.95 17 -17.1 15.05 -18.1 13.65 -18.4 11.5 -18.6 10.25 -18.6 7.55 -18.55 -0.8 -18.5 -7.1 -18.45 -12.45 -18.35 -16.3 -18.35 -17.1 -18.35 -17.8"/>

<path id="bril1_0_Layer0_0_1_STROKES" stroke="#FCFFFE" stroke-width="3" stroke-linejoin="round" stroke-linecap="round" fill="none" d="
M 5.1 -13.75
Q 4.5 -11.6 4.25 -10.5 4 -9.65 4 -9.1 3.9 -9 3.9 -8.95 3.9 -8.85 4 -8.85 4 -8.6 4.35 -8.6 4.6 -8.6 5.25 -8.5 5.7 -8.4 6 -8.5 6.3 -8.5 6.75 -8.8
L 7.5 -9.25
Q 8.1 -9.5 9.35 -9.75
L 9.85 -9.85
Q 10.25 -9.85 10.25 -9.75
L 10.25 -9.35
Q 10.25 -9.1 10 -7.85"/>

<path id="bril2_0_Layer1_0_1_STROKES" stroke="#E52613" stroke-width="5" stroke-linejoin="round" stroke-linecap="round" fill="none" d="
M -18.15 -16.25
Q -17.05 -17.2 -14.5 -17.75 1.25 -20.05 8.15 -17.7 9.3 -17.25 9.85 -16.55 10.6 -15.5 10.95 -12.6 11.55 -6.7 11.7 -0.4 11.5 3.15 12.3 7.05 12.9 11.7 12.45 14.3 11.35 18.05 8.2 18.8 7.2 18.9 5.6 18.75 3.1 18.4 3 18.45 1.15 18.15 -5.75 18.8 -10.8 19.25 -13.6 18.05 -16 16.9 -17 14.95 -17.85 13.7 -18.1 11.45 -18.15 10.1 -18.15 7.5 -17.75 -0.6 -17.95 -7.05 -18.05 -12.25 -18.15 -16.25 Z"/>

<path id="bril2_0_Layer0_0_1_STROKES" stroke="#FCFFFE" stroke-width="3" stroke-linejoin="round" stroke-linecap="round" fill="none" d="
M 2.4 -13.35
Q 1.4 -10.65 0.2 -10.3 -1.2 -9.45 -0.75 -8.8
L -0.8 -8.65
Q -0.95 -8.5 -0.7 -8.5 -0.75 -8.2 -0.15 -7.9 0 -7.95 0.8 -7.35 1.45 -6.8 1.5 -7.2 1.75 -7.05 2.15 -7.65 2.45 -7.75 2.75 -8.45 3.2 -8.8 4.6 -9.15 4.8 -8.85 5.15 -9.35 5.25 -9.1 5.55 -9.05 5.3 -8.65 5.4 -8.4 5.2 -7.9 5.15 -5.4"/>

<path id="Symbool_229_0_Layer0_0_1_STROKES" stroke="#000000" stroke-width="3" stroke-linejoin="round" stroke-linecap="round" fill="none" d="
M -27.5 -4.65
Q -22.15 1.05 -14.7 4.1 -7.3 7.15 0.5 6.85 8.3 6.5 15.45 2.85 22.65 -0.8 27.5 -6.9"/>

<path id="Symbool_204_0_Layer0_0_1_STROKES" stroke="#E52613" stroke-width="5" stroke-linejoin="round" stroke-linecap="round" fill="none" d="
M -9.35 20.95
Q 0.6 -14.05 9.4 -21"/>

<path id="Symbool_179_0_Layer0_0_1_STROKES" stroke="#E52613" stroke-width="5" stroke-linejoin="round" stroke-linecap="round" fill="none" d="
M -3.25 0.2
L -1.55 0.2
Q 2 0.25 3.3 -0.25"/>

<path id="Symbool_154_0_Layer0_0_1_STROKES" stroke="#E52613" stroke-width="5" stroke-linejoin="round" stroke-linecap="round" fill="none" d="
M 27.1 -0.4
Q -13 -17.05 -27.1 7.2"/>

<path id="haar_0_Layer3_0_1_STROKES" stroke="#000000" stroke-width="3" stroke-linejoin="round" stroke-linecap="round" fill="none" d="
M 38.25 19.05
Q 38.65 18.65 39.15 18.2
L 39.8 18.8
Q 40.2 20.8 40.45 22.8 42.2 36.55 35.95 48.9 49.1 33.55 49.65 21.85 73.15 34.15 77.3 68.55 81.05 64.7 81.5 58.55 84.2 64.3 88.7 66.65 87.95 53 84.3 38.8 80.65 24.55 62.65 5.5 44.65 -13.55 37.5 -22.7 30.35 -31.85 24.1 -40.75 13.15 -57.6 -5.1 -68.6
L -2.5 -60.65 -9.85 -67.95 -9.9 -64.45 -18.4 -68.55
Q -18.95 -61.8 -27.6 -65.3 -25.15 -56.65 -32.95 -62.45 -32.2 -58.2 -34.55 -55.65 -39.4 -59.2 -42.6 -59.1 -38.45 -47 -48.8 -53.35 -49.8 -50 -53.5 -52.2
L -54.9 -47.4 -60.75 -50.5 -63.9 -44.45
Q -66.8 -48.55 -71 -49.65 -62.7 23.4 -88.7 67.6 -70.05 54.45 -40.25 23.45
L -38.9 23.15 -37.2 30.1 -28.1 22.6
Q -23 31.75 -20.65 21.4 -18.6 25.55 -13.55 21.5 -12.3 24.45 -9.95 21.45 -6.4 24.85 -3.95 18.1 -0.85 24.65 3.9 18.05 8.6 21.7 7.75 29.45 19.25 13.25 21.7 19.85 22.7 26.6 28.15 19.85 28.85 24.85 32.65 19.85
L 33.4 19.3
Q 33.5 19.5 33.65 19.7
L 38.25 19.05
Q 35.05 21.75 33.65 19.7"/>

<path id="haar_0_Layer2_0_1_STROKES" stroke="#B50520" stroke-width="10" stroke-linejoin="round" stroke-linecap="round" fill="none" d="
M -3.7 -60.25
Q 49.878125 -10.2701171875 80.65 48.55
M 45 19.95
Q 30.6318359375 -19.774609375 -8.3 -53.55
M 27.7 11.05
L -13.7 -51.6
M -22.55 -46.8
Q -18.3791015625 -17.4796875 3.1 13.1
M -14.95 12.8
Q -36.2767578125 -15.8931640625 -34.8 -46.5
M -53.7 -36.35
Q -57.8400390625 3.574609375 -70.7 43.5
M -59.8 35
Q -44.2021484375 13.6958984375 -40.4 -13.25"/>

<path id="haar_0_Layer1_0_1_STROKES" stroke="#E0771B" stroke-width="5" stroke-linejoin="round" stroke-linecap="round" fill="none" d="
M 5 -53.6
Q 17.18046875 -35.25078125 35.95 -18.1
M 45.2 27.75
Q 47.69609375 17.378515625 45.2 11.6
M 38.75 -16.05
Q 66.5572265625 16.5818359375 83.25 55.15
M 48.1 9.85
Q 22.67578125 -28.716015625 0.2 -49.2
M 8.45 -0.35
Q 7.4267578125 7.45078125 11.4 17.25
M 9.9 -10.45
Q 16.6296875 -3.2380859375 20.8 12.2
M -60.1 -42.2
L -60.1 -37.95
M -37.75 -45.15
Q -33.313671875 -29.1783203125 -26.95 -12.85
M -23.45 -47.7
Q -17.3740234375 -33.66796875 -7.5 -20.45
M -5.1 -15.5
Q -4.436328125 -11.7330078125 -1.2 -9.55
M -20.825 2.025
Q -18.298046875 7.76015625 -15.55 13.55
M -52.8 28.2
Q -46.7197265625 19.443359375 -46.15 8.85
M -3.6 11.7
Q -19.66796875 -20.4515625 -28.55 -46
M -40.5 -25.15
Q -37.43125 -7.1845703125 -28.95 10.95
M -47.65 -42.95
Q -45.9267578125 -15.3048828125 -41.9 15.05
M -63 -37.7
Q -61.344140625 -1.6001953125 -68.75 34.5
M -72.3 48.2
Q -56.803125 28.6423828125 -48 -8.15
M -12.25 -56.65
Q 15.78046875 -29.703125 32.3 7.35
M -13.75 -47.1
Q -7.787109375 -33.4345703125 6.5 -18.3"/>

<path id="haar_0_Layer0_0_1_STROKES" stroke="#000000" stroke-width="3" stroke-linejoin="round" stroke-linecap="round" fill="none" d="
M 0.95 -47.15
Q 6.7509765625 -32.3 6.6 -17.45
M 14.4 -49.55
Q 22.3560546875 -38.5462890625 24.65 -15.05
M 8.1 -5.95
Q 2.795703125 2.9642578125 2.85 14.65
M 16.95 -6.85
Q 13.2115234375 1.44921875 17.05 8
M 28.75 -5.8
Q 25.9060546875 0.804296875 28.75 11.2
M 31.15 -8.55
Q 39.6615234375 2.14453125 39.7 9.45
M 42.95 -6.2
Q 65.5865234375 15.1068359375 81.2 52.9
M -62.45 -28.8
Q -61.6703125 -18.5046875 -62.4 -6.7
M -54.3 -36.9
Q -54.909765625 -26.8388671875 -52 -15.8
M -7.65 -45.45
Q -1.1125 -28.7888671875 -0.45 -10.4
M -16.2 -45.15
L -12.4 -12.05
M -37.35 -42.35
Q -39.3654296875 -27.21640625 -37.35 -11.35
M -28.4 -42.45
Q -29.079296875 -32.9130859375 -25.7 -21.25
M -20.4 -21.15
Q -27.463671875 -3.3583984375 -43 17.75
M -5 -11.95
Q -13.7552734375 2.2904296875 -28.3 16.35
M -47.15 -40.25
Q -40.48125 -30.6685546875 -64.15 30.3
M -43.7 -11.75
Q -46.7376953125 5.98359375 -53.8 23.9"/>

<path id="potlood_0_Layer0_0_1_STROKES" stroke="#000000" stroke-width="3" stroke-linejoin="round" stroke-linecap="round" fill="none" d="
M 55.75 -139.05
L 53.5 -161.5
Q 52.15 -170.45 45.6 -163.75
L 32.3 -144.25
Q 44.35 -135.7 55.75 -139.05
L 59.85 -98.05 -12.15 166.65
Q -46.05 165.6 -59.8 146.95
L 8.55 -109.45 32.3 -144.25
M 8.55 -109.45
Q 14.35 -98.95 31.35 -95.1 47.05 -89.9 59.85 -98.05"/>

<path id="potlood_0_Layer0_0_2_STROKES" stroke="#FFFFFF" stroke-width="5" stroke-linejoin="round" stroke-linecap="round" fill="none" d="
M 45.7 -80.4
Q 43.75 -70 41.1 -59.6 38.45 -49.25 35.05 -38.85
M 32.55 -29.1
Q 28.55 -18.85 26.9 -7.05"/>

<path id="Symbool_31_0_Layer0_0_1_STROKES" stroke="#000000" stroke-width="3" stroke-linejoin="round" stroke-linecap="round" fill="none" d="
M -46.75 -30.25
Q -52.05 -26.75 -55.9 -23.5 -60.5 -19.7 -63.55 -16 -67.6 -11.2 -69 -6.6 -70.7 -0.9 -68.1 4.2 -65.55 9.25 -58.9 13.5 -53.8 16.8 -46.35 19.6 -38.95 22.4 -29.3 24.7 -23.6 26.15 -17.85 27.15 -3.9 29.7 10.25 30.1 22.75 30.8 37.15 29.2 53.4 27.65 69.7 23.85"/>

<path id="afdek_0_Layer0_0_1_STROKES" stroke="#FFFFFF" stroke-width="20" stroke-linejoin="round" stroke-linecap="round" fill="none" d="
M 239.9 0
Q 239.9 99.45 169.55 169.65 99.3 240 -0.1 240 -99.55 240 -169.8 169.65 -240.1 99.45 -240.1 0 -240.1 -99.45 -169.8 -169.7 -99.55 -240 -0.1 -240 99.3 -240 169.55 -169.7 239.9 -99.45 239.9 0 Z"/>
</defs>

<g transform="matrix( 1, 0, 0, 1, 250,250) ">
<g transform="matrix( 1, 0, 0, 1, 0,0) ">
<use xlink:href="#background_0_Layer0_0_FILL"/>
</g>
</g>

<g transform="matrix( 1, 0, 0, 1, 329.3,368) ">
<g transform="matrix( 1, 0, 0, 1, 0,0) ">
<use xlink:href="#Symbool_15_0_Layer0_0_1_STROKES"/>
</g>
</g>

<g transform="matrix( 0.9993896484375, 0.03472900390625, -0.03472900390625, 0.9993896484375, 252.15,415.75) ">
<g transform="matrix( 1, 0, 0, 1, 0,0) ">
<use xlink:href="#lijf_0_Layer1_0_FILL"/>

<use xlink:href="#lijf_0_Layer1_0_1_STROKES"/>
</g>

<g transform="matrix( 1, 0, 0, 1, 0,0) ">
<use xlink:href="#lijf_0_Layer0_0_1_STROKES"/>
</g>
</g>

<g transform="matrix( 0.9993896484375, 0.0339202880859375, -0.0339202880859375, 0.9993896484375, 272.7,347.85) ">
<g transform="matrix( 1, 0, 0, 1, 0,0) ">
<use xlink:href="#hoofd_45_Layer10_0_FILL"/>

<use xlink:href="#hoofd_45_Layer10_0_1_STROKES"/>
</g>

<g transform="matrix( 1, 0, 0, 1, 0,0) ">
<use xlink:href="#hoofd_45_Layer9_0_1_STROKES"/>
</g>

<g transform="matrix( 1.017578125, 0.071136474609375, -0.071136474609375, 1.017578125, -0.25,-66.8) ">
<g transform="matrix( 1, 0, 0, 1, 0,0) ">
<use xlink:href="#ogen_45_Layer0_0_1_STROKES"/>
</g>
</g>

<g transform="matrix( 1, 0, 0, 1, 29.1,-65.2) ">
<g transform="matrix( 1, 0, 0, 1, 0,0) ">
<use xlink:href="#ogen_45_Layer0_0_1_STROKES"/>
</g>
</g>

<g transform="matrix( 1, 0, 0, 1, -10.8,-63.1) ">
<g transform="matrix( 1, 0, 0, 1, 0,0) ">
<use xlink:href="#bril1_0_Layer1_0_FILL"/>

<use xlink:href="#bril1_0_Layer1_0_1_STROKES"/>
</g>

<g transform="matrix( 1, 0, 0, 1, 0,0) ">
<use xlink:href="#bril1_0_Layer0_0_1_STROKES"/>
</g>
</g>

<g transform="matrix( 1, 0, 0, 1, 34.05,-61.3) ">
<g transform="matrix( 1, 0, 0, 1, 0,0) ">
<use xlink:href="#bril2_0_Layer1_0_FILL"/>

<use xlink:href="#bril2_0_Layer1_0_1_STROKES"/>
</g>

<g transform="matrix( 1, 0, 0, 1, 0,0) ">
<use xlink:href="#bril2_0_Layer0_0_1_STROKES"/>
</g>
</g>

<g transform="matrix( 1, 0, 0, 1, 6.3,-24.85) ">
<g transform="matrix( 1, 0, 0, 1, 0,0) ">
<use xlink:href="#Symbool_229_0_Layer0_0_1_STROKES"/>
</g>
</g>

<g transform="matrix( 1, 0, 0, 1, 56.05,-82.25) ">
<g transform="matrix( 1, 0, 0, 1, 0,0) ">
<use xlink:href="#Symbool_204_0_Layer0_0_1_STROKES"/>
</g>
</g>

<g transform="matrix( 1, 0, 0, 1, 11.95,-62.95) ">
<g transform="matrix( 1, 0, 0, 1, 0,0) ">
<use xlink:href="#Symbool_179_0_Layer0_0_1_STROKES"/>
</g>
</g>

<g transform="matrix( 1, 0, 0, 1, -57.5,-69.8) ">
<g transform="matrix( 1, 0, 0, 1, 0,0) ">
<use xlink:href="#Symbool_154_0_Layer0_0_1_STROKES"/>
</g>
</g>

<g transform="matrix( 1, 0, 0, 1, -10.65,-161.6) ">
<g transform="matrix( 1, 0, 0, 1, 0,0) ">
<use xlink:href="#haar_0_Layer3_0_FILL"/>

<use xlink:href="#haar_0_Layer3_0_1_STROKES"/>
</g>

<g transform="matrix( 1, 0, 0, 1, 0,0) ">
<use xlink:href="#haar_0_Layer2_0_1_STROKES"/>
</g>

<g transform="matrix( 1, 0, 0, 1, 0,0) ">
<use xlink:href="#haar_0_Layer1_0_1_STROKES"/>
</g>

<g transform="matrix( 1, 0, 0, 1, 0,0) ">
<use xlink:href="#haar_0_Layer0_0_1_STROKES"/>
</g>
</g>
</g>

<g transform="matrix( 0.9993896484375, 0.03472900390625, -0.03472900390625, 0.9993896484375, 370.75,328.05) ">
<g transform="matrix( 1, 0, 0, 1, 0,0) ">
<g transform="matrix( 1, 0, 0, 1, 0,0) ">
<use xlink:href="#potlood_0_Layer0_0_FILL"/>

<use xlink:href="#potlood_0_Layer0_0_1_STROKES"/>

<use xlink:href="#potlood_0_Layer0_0_2_STROKES"/>
</g>
</g>

<g transform="matrix( 1, 0, 0, 1, 38.35,52.85) ">
<g transform="matrix( 1, 0, 0, 1, 0,0) ">
<use xlink:href="#handje_0_Layer0_0_FILL"/>
</g>
</g>

<g transform="matrix( -1.15130615234375, 0, -0.0743560791015625, -1.048919677734375, -28.8,86.65) ">
<g transform="matrix( 1, 0, 0, 1, 0,0) ">
<use xlink:href="#handje_0_Layer0_0_FILL"/>
</g>
</g>
</g>

<g transform="matrix( 1, 0, 0, 1, 271.25,388.35) ">
<g transform="matrix( 1, 0, 0, 1, 0,0) ">
<use xlink:href="#Symbool_31_0_Layer0_0_1_STROKES"/>
</g>
</g>

<g transform="matrix( 1, 0, 0, 1, 250,250) ">
<g transform="matrix( 1, 0, 0, 1, 0,0) ">
<use xlink:href="#afdek_0_Layer0_0_FILL"/>

<use xlink:href="#afdek_0_Layer0_0_1_STROKES"/>
</g>
</g>
</svg>
